<svg width="64" height="64" viewBox="0 0 64 64" fill="none" xmlns="http://www.w3.org/2000/svg">
  <rect x="8" y="10" width="48" height="44" rx="14" fill="#0DB7ED"/>
  <path d="M17 34H48C47.2 42.4 41.6 47 32.4 47H26.2C21.2 47 17.6 42.9 17 34Z" fill="white"/>
  <rect x="18" y="26" width="6" height="6" rx="1" fill="white"/>
  <rect x="26" y="26" width="6" height="6" rx="1" fill="white"/>
  <rect x="34" y="26" width="6" height="6" rx="1" fill="white"/>
  <rect x="26" y="18" width="6" height="6" rx="1" fill="white"/>
  <rect x="34" y="18" width="6" height="6" rx="1" fill="white"/>
  <path d="M47 29C49.4 28 51.3 28.2 53 29.6C51.7 30.7 49.8 31.3 47.5 31.2L47 29Z" fill="white"/>
</svg>
